<?xml version="1.0" encoding="UTF-8" standalone="no"?>
<!DOCTYPE svg PUBLIC "-//W3C//DTD SVG 1.1//EN"
 "http://www.w3.org/Graphics/SVG/1.1/DTD/svg11.dtd">
<!-- Generated by graphviz version 2.43.0 (0)
 -->
<!-- Title: %3 Pages: 1 -->
<svg width="2198pt" height="963pt"
 viewBox="0.00 0.00 2198.00 963.00" xmlns="http://www.w3.org/2000/svg" xmlns:xlink="http://www.w3.org/1999/xlink">
<g id="graph0" class="graph" transform="scale(1 1) rotate(0) translate(4 959)">
<title>%3</title>
<polygon fill="white" stroke="transparent" points="-4,4 -4,-959 2194,-959 2194,4 -4,4"/>
<g id="clust1" class="cluster">
<title>cluster_legend</title>
<polygon fill="#eeeeee" stroke="black" points="732.5,-887.5 732.5,-939.5 1362.5,-939.5 1362.5,-887.5 732.5,-887.5"/>
</g>
<!-- cluster_legend_0 -->
<g id="node1" class="node">
<title>cluster_legend_0</title>
<polygon fill="#8dd3c7" stroke="black" points="1348.5,-931.5 1264.5,-931.5 1264.5,-895.5 1354.5,-895.5 1354.5,-925.5 1348.5,-931.5"/>
<polyline fill="none" stroke="black" points="1348.5,-931.5 1348.5,-925.5 "/>
<polyline fill="none" stroke="black" points="1354.5,-925.5 1348.5,-925.5 "/>
<text text-anchor="middle" x="1309.5" y="-909.8" font-family="Times,serif" font-size="14.00">platform.c</text>
</g>
<!-- cluster_legend_1 -->
<g id="node2" class="node">
<title>cluster_legend_1</title>
<polygon fill="#ffffb3" stroke="black" points="1240.5,-931.5 1182.5,-931.5 1182.5,-895.5 1246.5,-895.5 1246.5,-925.5 1240.5,-931.5"/>
<polyline fill="none" stroke="black" points="1240.5,-931.5 1240.5,-925.5 "/>
<polyline fill="none" stroke="black" points="1246.5,-925.5 1240.5,-925.5 "/>
<text text-anchor="middle" x="1214.5" y="-909.8" font-family="Times,serif" font-size="14.00">main.c</text>
</g>
<!-- cluster_legend_2 -->
<g id="node3" class="node">
<title>cluster_legend_2</title>
<polygon fill="#bebada" stroke="black" points="1158.5,-931.5 1088.5,-931.5 1088.5,-895.5 1164.5,-895.5 1164.5,-925.5 1158.5,-931.5"/>
<polyline fill="none" stroke="black" points="1158.5,-931.5 1158.5,-925.5 "/>
<polyline fill="none" stroke="black" points="1164.5,-925.5 1158.5,-925.5 "/>
<text text-anchor="middle" x="1126.5" y="-909.8" font-family="Times,serif" font-size="14.00">screen.c</text>
</g>
<!-- cluster_legend_3 -->
<g id="node4" class="node">
<title>cluster_legend_3</title>
<polygon fill="#fb8072" stroke="black" points="1064,-931.5 995,-931.5 995,-895.5 1070,-895.5 1070,-925.5 1064,-931.5"/>
<polyline fill="none" stroke="black" points="1064,-931.5 1064,-925.5 "/>
<polyline fill="none" stroke="black" points="1070,-925.5 1064,-925.5 "/>
<text text-anchor="middle" x="1032.5" y="-909.8" font-family="Times,serif" font-size="14.00">render.c</text>
</g>
<!-- cluster_legend_4 -->
<g id="node5" class="node">
<title>cluster_legend_4</title>
<polygon fill="#80b1d3" stroke="black" points="970.5,-931.5 904.5,-931.5 904.5,-895.5 976.5,-895.5 976.5,-925.5 970.5,-931.5"/>
<polyline fill="none" stroke="black" points="970.5,-931.5 970.5,-925.5 "/>
<polyline fill="none" stroke="black" points="976.5,-925.5 970.5,-925.5 "/>
<text text-anchor="middle" x="940.5" y="-909.8" font-family="Times,serif" font-size="14.00">player.c</text>
</g>
<!-- cluster_legend_5 -->
<g id="node6" class="node">
<title>cluster_legend_5</title>
<polygon fill="#fdb462" stroke="black" points="880,-931.5 827,-931.5 827,-895.5 886,-895.5 886,-925.5 880,-931.5"/>
<polyline fill="none" stroke="black" points="880,-931.5 880,-925.5 "/>
<polyline fill="none" stroke="black" points="886,-925.5 880,-925.5 "/>
<text text-anchor="middle" x="856.5" y="-909.8" font-family="Times,serif" font-size="14.00">map.c</text>
</g>
<!-- cluster_legend_6 -->
<g id="node7" class="node">
<title>cluster_legend_6</title>
<polygon fill="#b3de69" stroke="black" points="802.5,-931.5 740.5,-931.5 740.5,-895.5 808.5,-895.5 808.5,-925.5 802.5,-931.5"/>
<polyline fill="none" stroke="black" points="802.5,-931.5 802.5,-925.5 "/>
<polyline fill="none" stroke="black" points="808.5,-925.5 802.5,-925.5 "/>
<text text-anchor="middle" x="774.5" y="-909.8" font-family="Times,serif" font-size="14.00">menu.c</text>
</g>
<!-- fopen -->
<g id="node8" class="node">
<title>fopen</title>
<ellipse fill="#eeeeee" stroke="black" cx="544.5" cy="-18" rx="36.29" ry="18"/>
<text text-anchor="middle" x="544.5" y="-14.3" font-family="Times,serif" font-size="14.00">fopen</text>
</g>
<!-- fclose -->
<g id="node9" class="node">
<title>fclose</title>
<ellipse fill="#eeeeee" stroke="black" cx="390.5" cy="-18" rx="37.89" ry="18"/>
<text text-anchor="middle" x="390.5" y="-14.3" font-family="Times,serif" font-size="14.00">fclose</text>
</g>
<!-- malloc -->
<g id="node10" class="node">
<title>malloc</title>
<ellipse fill="#eeeeee" stroke="black" cx="877.5" cy="-103.5" rx="40.89" ry="18"/>
<text text-anchor="middle" x="877.5" y="-99.8" font-family="Times,serif" font-size="14.00">malloc</text>
</g>
<!-- free -->
<g id="node11" class="node">
<title>free</title>
<ellipse fill="#eeeeee" stroke="black" cx="1239.5" cy="-103.5" rx="29.5" ry="18"/>
<text text-anchor="middle" x="1239.5" y="-99.8" font-family="Times,serif" font-size="14.00">free</text>
</g>
<!-- exit -->
<g id="node12" class="node">
<title>exit</title>
<defs>
<radialGradient id="r_0" cx="50%" cy="50%" r="75%" fx="50%" fy="50%">
<stop offset="0" style="stop-color:white;stop-opacity:1.;"/>
<stop offset="1" style="stop-color:#eeeeee;stop-opacity:1.;"/>
</radialGradient>
</defs>
<ellipse fill="url(#r_0)" stroke="black" stroke-dasharray="5,2" cx="1473.5" cy="-913.5" rx="28.7" ry="18"/>
<text text-anchor="middle" x="1473.5" y="-909.8" font-family="Times,serif" font-size="14.00">exit</text>
</g>
<!-- platform_get_console_size -->
<g id="node13" class="node">
<title>platform_get_console_size</title>
<polygon fill="#8dd3c7" stroke="black" points="1514,-123 1311,-123 1311,-84 1514,-84 1514,-123"/>
<text text-anchor="middle" x="1412.5" y="-99.8" font-family="Times,serif" font-size="14.00">platform_get_console_size</text>
</g>
<!-- current_timestamp_ms -->
<g id="node14" class="node">
<title>current_timestamp_ms</title>
<polygon fill="#8dd3c7" stroke="black" points="1647,-812.5 1466,-812.5 1466,-779.5 1647,-779.5 1647,-812.5"/>
<text text-anchor="middle" x="1556.5" y="-792.3" font-family="Times,serif" font-size="14.00">current_timestamp_ms</text>
</g>
<!-- sleep_ms -->
<g id="node15" class="node">
<title>sleep_ms</title>
<polygon fill="#8dd3c7" stroke="black" points="1355.5,-685.5 1273.5,-685.5 1273.5,-662.5 1355.5,-662.5 1355.5,-685.5"/>
<text text-anchor="middle" x="1314.5" y="-670.3" font-family="Times,serif" font-size="14.00">sleep_ms</text>
</g>
<!-- platform_get_key_state -->
<g id="node16" class="node">
<title>platform_get_key_state</title>
<polygon fill="#8dd3c7" stroke="black" points="1894.5,-685.5 1712.5,-685.5 1712.5,-662.5 1894.5,-662.5 1894.5,-685.5"/>
<text text-anchor="middle" x="1803.5" y="-670.3" font-family="Times,serif" font-size="14.00">platform_get_key_state</text>
</g>
<!-- main -->
<g id="node17" class="node">
<title>main</title>
<polygon fill="#ffffb3" stroke="black" points="1426.5,-955 1372.5,-955 1372.5,-872 1426.5,-872 1426.5,-955"/>
<text text-anchor="middle" x="1399.5" y="-909.8" font-family="Times,serif" font-size="14.00">main</text>
</g>
<!-- main&#45;&gt;free -->
<g id="edge13" class="edge">
<title>main&#45;&gt;free</title>
<path fill="none" stroke="black" d="M1426.54,-878.16C1429.37,-875.83 1432.37,-873.72 1435.5,-872 1522.7,-824.04 1587.7,-907.9 1656.5,-836 1706.32,-783.94 1675.5,-747.05 1675.5,-675 1675.5,-675 1675.5,-675 1675.5,-343 1675.5,-237.07 1604.05,-220.7 1510.5,-171 1427.26,-126.78 1391.15,-164.1 1301.5,-135 1290.61,-131.46 1279.21,-126.32 1269.21,-121.26"/>
<polygon fill="black" stroke="black" points="1270.59,-118.04 1260.1,-116.5 1267.34,-124.24 1270.59,-118.04"/>
</g>
<!-- main&#45;&gt;current_timestamp_ms -->
<g id="edge5" class="edge">
<title>main&#45;&gt;current_timestamp_ms</title>
<path fill="none" stroke="black" d="M1426.57,-880.25C1429.48,-877.34 1432.48,-874.54 1435.5,-872 1460.74,-850.76 1492.54,-831.29 1517.21,-817.51"/>
<polygon fill="black" stroke="black" points="1519.21,-820.4 1526.29,-812.51 1515.84,-814.27 1519.21,-820.4"/>
</g>
<!-- main&#45;&gt;sleep_ms -->
<g id="edge7" class="edge">
<title>main&#45;&gt;sleep_ms</title>
<path fill="none" stroke="black" d="M1384.98,-871.94C1366.66,-820.73 1335.83,-734.59 1321.82,-695.45"/>
<polygon fill="black" stroke="black" points="1325.08,-694.17 1318.41,-685.93 1318.49,-696.53 1325.08,-694.17"/>
</g>
<!-- main&#45;&gt;platform_get_key_state -->
<g id="edge12" class="edge">
<title>main&#45;&gt;platform_get_key_state</title>
<path fill="none" stroke="black" d="M1426.84,-877.51C1429.57,-875.38 1432.46,-873.5 1435.5,-872 1530.76,-824.83 1840.22,-913.94 1912.5,-836 1936.68,-809.93 1928.47,-787.77 1912.5,-756 1897.13,-725.42 1864.14,-703.48 1838.45,-690.21"/>
<polygon fill="black" stroke="black" points="1839.88,-687.01 1829.37,-685.71 1836.78,-693.28 1839.88,-687.01"/>
</g>
<!-- get_screen_size -->
<g id="node18" class="node">
<title>get_screen_size</title>
<polygon fill="#bebada" stroke="black" points="1501.5,-250.5 1373.5,-250.5 1373.5,-185.5 1501.5,-185.5 1501.5,-250.5"/>
<text text-anchor="middle" x="1437.5" y="-214.3" font-family="Times,serif" font-size="14.00">get_screen_size</text>
</g>
<!-- main&#45;&gt;get_screen_size -->
<g id="edge1" class="edge">
<title>main&#45;&gt;get_screen_size</title>
<path fill="none" stroke="black" d="M1410.09,-871.63C1421.33,-824.56 1437.5,-744.73 1437.5,-675 1437.5,-675 1437.5,-675 1437.5,-455 1437.5,-387.01 1437.5,-307.99 1437.5,-260.82"/>
<polygon fill="black" stroke="black" points="1441,-260.68 1437.5,-250.68 1434,-260.68 1441,-260.68"/>
</g>
<!-- update_screen_size -->
<g id="node19" class="node">
<title>update_screen_size</title>
<polygon fill="#bebada" stroke="black" points="1317,-250.5 1162,-250.5 1162,-185.5 1317,-185.5 1317,-250.5"/>
<text text-anchor="middle" x="1239.5" y="-214.3" font-family="Times,serif" font-size="14.00">update_screen_size</text>
</g>
<!-- main&#45;&gt;update_screen_size -->
<g id="edge8" class="edge">
<title>main&#45;&gt;update_screen_size</title>
<path fill="none" stroke="black" d="M1372.37,-876.07C1370.49,-874.57 1368.53,-873.2 1366.5,-872 1288.69,-826.14 1224.43,-905.29 1166.5,-836 1143.69,-808.72 1162.26,-791.3 1166.5,-756 1186.64,-588.4 1236.36,-554.6 1256.5,-387 1261.06,-349.05 1260.4,-339.02 1256.5,-301 1255.14,-287.76 1252.58,-273.51 1249.85,-260.66"/>
<polygon fill="black" stroke="black" points="1253.23,-259.7 1247.65,-250.7 1246.39,-261.22 1253.23,-259.7"/>
</g>
<!-- render_screen -->
<g id="node20" class="node">
<title>render_screen</title>
<polygon fill="#bebada" stroke="black" points="1063,-249.5 944,-249.5 944,-186.5 1063,-186.5 1063,-249.5"/>
<text text-anchor="middle" x="1003.5" y="-214.3" font-family="Times,serif" font-size="14.00">render_screen</text>
</g>
<!-- main&#45;&gt;render_screen -->
<g id="edge11" class="edge">
<title>main&#45;&gt;render_screen</title>
<path fill="none" stroke="black" d="M1372.39,-876.04C1370.5,-874.55 1368.54,-873.18 1366.5,-872 1282.74,-823.31 1219.66,-904.86 1151.5,-836 1066.84,-750.47 1115.39,-411.41 1067.5,-301 1060.78,-285.5 1050.42,-270.37 1039.98,-257.42"/>
<polygon fill="black" stroke="black" points="1042.59,-255.09 1033.5,-249.65 1037.22,-259.57 1042.59,-255.09"/>
</g>
<!-- free_screen -->
<g id="node21" class="node">
<title>free_screen</title>
<polygon fill="#bebada" stroke="black" points="2059,-818 1960,-818 1960,-774 2059,-774 2059,-818"/>
<text text-anchor="middle" x="2009.5" y="-792.3" font-family="Times,serif" font-size="14.00">free_screen</text>
</g>
<!-- main&#45;&gt;free_screen -->
<g id="edge15" class="edge">
<title>main&#45;&gt;free_screen</title>
<path fill="none" stroke="black" d="M1426.83,-877.49C1429.57,-875.37 1432.46,-873.5 1435.5,-872 1537.44,-821.83 1837.26,-870.54 1945.5,-836 1954.79,-833.04 1964.13,-828.46 1972.69,-823.48"/>
<polygon fill="black" stroke="black" points="1974.61,-826.41 1981.29,-818.18 1970.94,-820.44 1974.61,-826.41"/>
</g>
<!-- render_frame -->
<g id="node24" class="node">
<title>render_frame</title>
<polygon fill="#fb8072" stroke="black" points="2190,-807.5 2077,-807.5 2077,-784.5 2190,-784.5 2190,-807.5"/>
<text text-anchor="middle" x="2133.5" y="-792.3" font-family="Times,serif" font-size="14.00">render_frame</text>
</g>
<!-- main&#45;&gt;render_frame -->
<g id="edge10" class="edge">
<title>main&#45;&gt;render_frame</title>
<path fill="none" stroke="black" d="M1426.81,-877.44C1429.55,-875.34 1432.45,-873.47 1435.5,-872 1562.34,-810.65 1933.84,-877.45 2068.5,-836 2083.94,-831.25 2099.51,-822.09 2111.54,-813.84"/>
<polygon fill="black" stroke="black" points="2113.89,-816.46 2119.99,-807.8 2109.82,-810.77 2113.89,-816.46"/>
</g>
<!-- setup_player_global -->
<g id="node25" class="node">
<title>setup_player_global</title>
<polygon fill="#80b1d3" stroke="black" points="849.5,-359.5 691.5,-359.5 691.5,-328.5 849.5,-328.5 849.5,-359.5"/>
<text text-anchor="middle" x="770.5" y="-340.3" font-family="Times,serif" font-size="14.00">setup_player_global</text>
</g>
<!-- main&#45;&gt;setup_player_global -->
<g id="edge2" class="edge">
<title>main&#45;&gt;setup_player_global</title>
<path fill="none" stroke="black" d="M1372.46,-875.92C1370.55,-874.46 1368.57,-873.13 1366.5,-872 1246.46,-806.1 1192.01,-874.18 1060.5,-836 901.86,-789.94 725.5,-840.19 725.5,-675 725.5,-675 725.5,-675 725.5,-557.5 725.5,-497.13 730.68,-481.77 744.5,-423 748.8,-404.71 755.55,-384.61 761.1,-369.39"/>
<polygon fill="black" stroke="black" points="764.49,-370.31 764.7,-359.72 757.93,-367.87 764.49,-370.31"/>
</g>
<!-- update_player_movement -->
<g id="node26" class="node">
<title>update_player_movement</title>
<polygon fill="#80b1d3" stroke="black" points="1903.5,-836 1703.5,-836 1703.5,-756 1903.5,-756 1903.5,-836"/>
<text text-anchor="middle" x="1803.5" y="-792.3" font-family="Times,serif" font-size="14.00">update_player_movement</text>
</g>
<!-- main&#45;&gt;update_player_movement -->
<g id="edge9" class="edge">
<title>main&#45;&gt;update_player_movement</title>
<path fill="none" stroke="black" d="M1426.5,-878.09C1429.34,-875.77 1432.35,-873.69 1435.5,-872 1535.97,-818.09 1578.62,-862.57 1689.5,-836 1690.79,-835.69 1692.08,-835.37 1693.38,-835.05"/>
<polygon fill="black" stroke="black" points="1694.63,-838.34 1703.41,-832.41 1692.85,-831.57 1694.63,-838.34"/>
</g>
<!-- free_menus -->
<g id="node29" class="node">
<title>free_menus</title>
<polygon fill="#b3de69" stroke="black" points="1395,-471 1296,-471 1296,-441 1395,-441 1395,-471"/>
<text text-anchor="middle" x="1345.5" y="-452.3" font-family="Times,serif" font-size="14.00">free_menus</text>
</g>
<!-- main&#45;&gt;free_menus -->
<g id="edge14" class="edge">
<title>main&#45;&gt;free_menus</title>
<path fill="none" stroke="black" d="M1394.66,-871.68C1383.68,-779.04 1357.15,-555.23 1348.37,-481.22"/>
<polygon fill="black" stroke="black" points="1351.82,-480.56 1347.16,-471.04 1344.87,-481.38 1351.82,-480.56"/>
</g>
<!-- menu_render -->
<g id="node41" class="node">
<title>menu_render</title>
<polygon fill="#b3de69" stroke="black" points="1059,-387 948,-387 948,-301 1059,-301 1059,-387"/>
<text text-anchor="middle" x="1003.5" y="-340.3" font-family="Times,serif" font-size="14.00">menu_render</text>
</g>
<!-- main&#45;&gt;menu_render -->
<g id="edge4" class="edge">
<title>main&#45;&gt;menu_render</title>
<path fill="none" stroke="black" d="M1372.44,-875.95C1370.54,-874.48 1368.56,-873.15 1366.5,-872 1260.43,-812.73 1182.1,-921.23 1095.5,-836 1043.94,-785.25 1071.5,-747.35 1071.5,-675 1071.5,-675 1071.5,-675 1071.5,-557.5 1071.5,-497.06 1072.2,-479.78 1051.5,-423 1048.19,-413.91 1043.73,-404.73 1038.87,-396.02"/>
<polygon fill="black" stroke="black" points="1041.75,-394.01 1033.69,-387.14 1035.71,-397.54 1041.75,-394.01"/>
</g>
<!-- setup_main_menu -->
<g id="node45" class="node">
<title>setup_main_menu</title>
<polygon fill="#b3de69" stroke="black" points="526,-817 381,-817 381,-775 526,-775 526,-817"/>
<text text-anchor="middle" x="453.5" y="-792.3" font-family="Times,serif" font-size="14.00">setup_main_menu</text>
</g>
<!-- main&#45;&gt;setup_main_menu -->
<g id="edge3" class="edge">
<title>main&#45;&gt;setup_main_menu</title>
<path fill="none" stroke="black" d="M1372.1,-875.43C1370.31,-874.15 1368.44,-872.99 1366.5,-872 1301.55,-838.93 784.01,-843.46 711.5,-836 652.57,-829.94 586.51,-819.89 536,-811.51"/>
<polygon fill="black" stroke="black" points="536.55,-808.06 526.11,-809.86 535.39,-814.96 536.55,-808.06"/>
</g>
<!-- menu_update_input -->
<g id="node46" class="node">
<title>menu_update_input</title>
<polygon fill="#b3de69" stroke="black" points="1333,-833 1176,-833 1176,-759 1333,-759 1333,-833"/>
<text text-anchor="middle" x="1254.5" y="-792.3" font-family="Times,serif" font-size="14.00">menu_update_input</text>
</g>
<!-- main&#45;&gt;menu_update_input -->
<g id="edge6" class="edge">
<title>main&#45;&gt;menu_update_input</title>
<path fill="none" stroke="black" d="M1372.46,-877.82C1370.51,-875.79 1368.51,-873.83 1366.5,-872 1353.55,-860.21 1338.61,-848.91 1323.94,-838.81"/>
<polygon fill="black" stroke="black" points="1325.6,-835.71 1315.35,-833.01 1321.68,-841.51 1325.6,-835.71"/>
</g>
<!-- get_screen_size&#45;&gt;malloc -->
<g id="edge18" class="edge">
<title>get_screen_size&#45;&gt;malloc</title>
<path fill="none" stroke="black" d="M1373.28,-187.52C1357.88,-181.32 1341.31,-175.35 1325.5,-171 1184.31,-132.15 1011.46,-114.63 927.73,-107.97"/>
<polygon fill="black" stroke="black" points="927.97,-104.48 917.72,-107.19 927.42,-111.46 927.97,-104.48"/>
</g>
<!-- get_screen_size&#45;&gt;free -->
<g id="edge17" class="edge">
<title>get_screen_size&#45;&gt;free</title>
<path fill="none" stroke="black" d="M1384.32,-185.38C1376.04,-180.53 1367.55,-175.6 1359.5,-171 1329.2,-153.67 1294.27,-134.39 1269.93,-121.07"/>
<polygon fill="black" stroke="black" points="1271.29,-117.83 1260.84,-116.1 1267.94,-123.97 1271.29,-117.83"/>
</g>
<!-- get_screen_size&#45;&gt;platform_get_console_size -->
<g id="edge16" class="edge">
<title>get_screen_size&#45;&gt;platform_get_console_size</title>
<path fill="none" stroke="black" d="M1430.47,-185.36C1426.82,-168.94 1422.4,-149.04 1418.85,-133.08"/>
<polygon fill="black" stroke="black" points="1422.25,-132.25 1416.67,-123.25 1415.42,-133.77 1422.25,-132.25"/>
</g>
<!-- update_screen_size&#45;&gt;malloc -->
<g id="edge21" class="edge">
<title>update_screen_size&#45;&gt;malloc</title>
<path fill="none" stroke="black" d="M1161.84,-192.87C1087.8,-169.86 979.07,-136.07 919.82,-117.65"/>
<polygon fill="black" stroke="black" points="920.63,-114.24 910.04,-114.61 918.56,-120.92 920.63,-114.24"/>
</g>
<!-- update_screen_size&#45;&gt;free -->
<g id="edge20" class="edge">
<title>update_screen_size&#45;&gt;free</title>
<path fill="none" stroke="black" d="M1239.5,-185.36C1239.5,-168.57 1239.5,-148.13 1239.5,-132.01"/>
<polygon fill="black" stroke="black" points="1243,-131.63 1239.5,-121.63 1236,-131.63 1243,-131.63"/>
</g>
<!-- update_screen_size&#45;&gt;platform_get_console_size -->
<g id="edge19" class="edge">
<title>update_screen_size&#45;&gt;platform_get_console_size</title>
<path fill="none" stroke="black" d="M1288.15,-185.36C1315.77,-167.4 1349.81,-145.26 1375.29,-128.7"/>
<polygon fill="black" stroke="black" points="1377.45,-131.47 1383.92,-123.08 1373.63,-125.6 1377.45,-131.47"/>
</g>
<!-- render_screen&#45;&gt;malloc -->
<g id="edge22" class="edge">
<title>render_screen&#45;&gt;malloc</title>
<path fill="none" stroke="black" d="M969.07,-186.26C948.03,-167.47 921.6,-143.87 902.55,-126.86"/>
<polygon fill="black" stroke="black" points="904.66,-124.06 894.87,-120.01 900,-129.28 904.66,-124.06"/>
</g>
<!-- free_screen&#45;&gt;free -->
<g id="edge23" class="edge">
<title>free_screen&#45;&gt;free</title>
<path fill="none" stroke="black" d="M2002.97,-773.81C1990.94,-732.83 1966.5,-639.71 1966.5,-559.5 1966.5,-559.5 1966.5,-559.5 1966.5,-343 1966.5,-33.32 1599.55,-219.05 1301.5,-135 1290.39,-131.87 1278.87,-126.78 1268.82,-121.65"/>
<polygon fill="black" stroke="black" points="1270.16,-118.4 1259.69,-116.78 1266.87,-124.57 1270.16,-118.4"/>
</g>
<!-- get_shade -->
<g id="node22" class="node">
<title>get_shade</title>
<polygon fill="#fb8072" stroke="black" points="2178,-577 2089,-577 2089,-540 2178,-540 2178,-577"/>
<text text-anchor="middle" x="2133.5" y="-554.8" font-family="Times,serif" font-size="14.00">get_shade</text>
</g>
<!-- calc_column -->
<g id="node23" class="node">
<title>calc_column</title>
<polygon fill="#fb8072" stroke="black" points="2185,-720 2082,-720 2082,-628 2185,-628 2185,-720"/>
<text text-anchor="middle" x="2133.5" y="-670.3" font-family="Times,serif" font-size="14.00">calc_column</text>
</g>
<!-- calc_column&#45;&gt;get_shade -->
<g id="edge24" class="edge">
<title>calc_column&#45;&gt;get_shade</title>
<path fill="none" stroke="black" d="M2133.5,-627.82C2133.5,-614.05 2133.5,-599.33 2133.5,-587.09"/>
<polygon fill="black" stroke="black" points="2137,-587.06 2133.5,-577.06 2130,-587.06 2137,-587.06"/>
</g>
<!-- render_frame&#45;&gt;calc_column -->
<g id="edge25" class="edge">
<title>render_frame&#45;&gt;calc_column</title>
<path fill="none" stroke="black" d="M2133.5,-784.35C2133.5,-772.03 2133.5,-750.82 2133.5,-730.33"/>
<polygon fill="black" stroke="black" points="2137,-730.05 2133.5,-720.05 2130,-730.05 2137,-730.05"/>
</g>
<!-- update_player_movement&#45;&gt;platform_get_key_state -->
<g id="edge26" class="edge">
<title>update_player_movement&#45;&gt;platform_get_key_state</title>
<path fill="none" stroke="black" d="M1803.5,-755.71C1803.5,-735.71 1803.5,-712.22 1803.5,-695.76"/>
<polygon fill="black" stroke="black" points="1807,-695.61 1803.5,-685.61 1800,-695.61 1807,-695.61"/>
</g>
<!-- load_map -->
<g id="node27" class="node">
<title>load_map</title>
<polygon fill="#fdb462" stroke="black" points="649.5,-265 565.5,-265 565.5,-171 649.5,-171 649.5,-265"/>
<text text-anchor="middle" x="607.5" y="-214.3" font-family="Times,serif" font-size="14.00">load_map</text>
</g>
<!-- load_map&#45;&gt;fopen -->
<g id="edge27" class="edge">
<title>load_map&#45;&gt;fopen</title>
<path fill="none" stroke="black" d="M600.01,-170.99C594.49,-142 585.79,-104.12 573.5,-72 569.92,-62.65 564.98,-52.9 560.19,-44.35"/>
<polygon fill="black" stroke="black" points="563.17,-42.51 555.12,-35.62 557.11,-46.03 563.17,-42.51"/>
</g>
<!-- load_map&#45;&gt;fclose -->
<g id="edge29" class="edge">
<title>load_map&#45;&gt;fclose</title>
<path fill="none" stroke="black" d="M589.08,-170.97C573.52,-134.06 551.31,-86.15 535.5,-72 507.69,-47.1 467.23,-33.61 436.11,-26.48"/>
<polygon fill="black" stroke="black" points="436.46,-22.98 425.95,-24.3 434.99,-29.82 436.46,-22.98"/>
</g>
<!-- load_map&#45;&gt;malloc -->
<g id="edge28" class="edge">
<title>load_map&#45;&gt;malloc</title>
<path fill="none" stroke="black" d="M649.58,-176.65C652.51,-174.61 655.49,-172.7 658.5,-171 713.17,-140.1 783.81,-122.01 829.86,-112.69"/>
<polygon fill="black" stroke="black" points="830.73,-116.08 839.87,-110.72 829.38,-109.21 830.73,-116.08"/>
</g>
<!-- save_map_to_file -->
<g id="node28" class="node">
<title>save_map_to_file</title>
<polygon fill="#fdb462" stroke="black" points="333.5,-135 197.5,-135 197.5,-72 333.5,-72 333.5,-135"/>
<text text-anchor="middle" x="265.5" y="-99.8" font-family="Times,serif" font-size="14.00">save_map_to_file</text>
</g>
<!-- save_map_to_file&#45;&gt;fopen -->
<g id="edge30" class="edge">
<title>save_map_to_file&#45;&gt;fopen</title>
<path fill="none" stroke="black" d="M333.78,-74.96C336.71,-73.93 339.63,-72.94 342.5,-72 396.81,-54.19 460.83,-38.22 502.01,-28.57"/>
<polygon fill="black" stroke="black" points="503.02,-31.93 511.96,-26.26 501.43,-25.11 503.02,-31.93"/>
</g>
<!-- save_map_to_file&#45;&gt;fclose -->
<g id="edge31" class="edge">
<title>save_map_to_file&#45;&gt;fclose</title>
<path fill="none" stroke="black" d="M311.34,-71.88C327.84,-60.86 346.01,-48.72 360.78,-38.85"/>
<polygon fill="black" stroke="black" points="363.12,-41.5 369.49,-33.03 359.23,-35.68 363.12,-41.5"/>
</g>
<!-- free_menus&#45;&gt;free -->
<g id="edge32" class="edge">
<title>free_menus&#45;&gt;free</title>
<path fill="none" stroke="black" d="M1348.31,-440.9C1356.21,-397.52 1374.95,-263.39 1325.5,-171 1313.51,-148.59 1290.33,-131.36 1271.06,-120.05"/>
<polygon fill="black" stroke="black" points="1272.69,-116.96 1262.26,-115.13 1269.28,-123.07 1272.69,-116.96"/>
</g>
<!-- menu_free -->
<g id="node31" class="node">
<title>menu_free</title>
<polygon fill="#b3de69" stroke="black" points="1247.5,-367.5 1155.5,-367.5 1155.5,-320.5 1247.5,-320.5 1247.5,-367.5"/>
<text text-anchor="middle" x="1201.5" y="-340.3" font-family="Times,serif" font-size="14.00">menu_free</text>
</g>
<!-- free_menus&#45;&gt;menu_free -->
<g id="edge33" class="edge">
<title>free_menus&#45;&gt;menu_free</title>
<path fill="none" stroke="black" d="M1326.97,-440.84C1304.91,-424 1267.53,-395.44 1239.29,-373.86"/>
<polygon fill="black" stroke="black" points="1241.29,-370.99 1231.21,-367.7 1237.04,-376.55 1241.29,-370.99"/>
</g>
<!-- menu_init -->
<g id="node30" class="node">
<title>menu_init</title>
<polygon fill="#b3de69" stroke="black" points="1043,-482.5 956,-482.5 956,-429.5 1043,-429.5 1043,-482.5"/>
<text text-anchor="middle" x="999.5" y="-452.3" font-family="Times,serif" font-size="14.00">menu_init</text>
</g>
<!-- menu_init&#45;&gt;malloc -->
<g id="edge35" class="edge">
<title>menu_init&#45;&gt;malloc</title>
<path fill="none" stroke="black" d="M970.66,-429.36C959.03,-417.55 946.5,-402.68 938.5,-387 894.53,-300.84 882.19,-184.24 878.78,-131.91"/>
<polygon fill="black" stroke="black" points="882.26,-131.53 878.18,-121.75 875.27,-131.94 882.26,-131.53"/>
</g>
<!-- menu_init&#45;&gt;free -->
<g id="edge34" class="edge">
<title>menu_init&#45;&gt;free</title>
<path fill="none" stroke="black" d="M1030.92,-429.48C1043.75,-417.69 1057.82,-402.8 1067.5,-387 1120.2,-300.94 1076.17,-251.14 1137.5,-171 1155.49,-147.5 1184.31,-129.81 1206.73,-118.61"/>
<polygon fill="black" stroke="black" points="1208.4,-121.69 1215.9,-114.21 1205.37,-115.38 1208.4,-121.69"/>
</g>
<!-- menu_free&#45;&gt;free -->
<g id="edge36" class="edge">
<title>menu_free&#45;&gt;free</title>
<path fill="none" stroke="black" d="M1182.51,-320.44C1171.38,-305.69 1158.39,-285.44 1152.5,-265 1140.94,-224.85 1133.99,-208.45 1152.5,-171 1163.92,-147.9 1187.63,-130.62 1207.42,-119.47"/>
<polygon fill="black" stroke="black" points="1209.3,-122.44 1216.46,-114.64 1206,-116.27 1209.3,-122.44"/>
</g>
<!-- menu_add_item -->
<g id="node32" class="node">
<title>menu_add_item</title>
<polygon fill="#b3de69" stroke="black" points="479.5,-485 351.5,-485 351.5,-427 479.5,-427 479.5,-485"/>
<text text-anchor="middle" x="415.5" y="-452.3" font-family="Times,serif" font-size="14.00">menu_add_item</text>
</g>
<!-- menu_add_item&#45;&gt;malloc -->
<g id="edge37" class="edge">
<title>menu_add_item&#45;&gt;malloc</title>
<path fill="none" stroke="black" d="M449.23,-426.83C492.74,-391.97 572.06,-333.27 649.5,-301 721.19,-271.13 762.03,-316.13 820.5,-265 859.63,-230.78 871.9,-167.86 875.75,-131.8"/>
<polygon fill="black" stroke="black" points="879.26,-131.82 876.69,-121.54 872.29,-131.18 879.26,-131.82"/>
</g>
<!-- action_resume -->
<g id="node33" class="node">
<title>action_resume</title>
<polygon fill="#b3de69" stroke="black" points="275.5,-229.5 155.5,-229.5 155.5,-206.5 275.5,-206.5 275.5,-229.5"/>
<text text-anchor="middle" x="215.5" y="-214.3" font-family="Times,serif" font-size="14.00">action_resume</text>
</g>
<!-- menu_find_item_index -->
<g id="node34" class="node">
<title>menu_find_item_index</title>
<polygon fill="#b3de69" stroke="black" points="527,-125.5 352,-125.5 352,-81.5 527,-81.5 527,-125.5"/>
<text text-anchor="middle" x="439.5" y="-99.8" font-family="Times,serif" font-size="14.00">menu_find_item_index</text>
</g>
<!-- menu_insert_item -->
<g id="node35" class="node">
<title>menu_insert_item</title>
<polygon fill="#b3de69" stroke="black" points="811.5,-252.5 667.5,-252.5 667.5,-183.5 811.5,-183.5 811.5,-252.5"/>
<text text-anchor="middle" x="739.5" y="-214.3" font-family="Times,serif" font-size="14.00">menu_insert_item</text>
</g>
<!-- menu_insert_item&#45;&gt;malloc -->
<g id="edge38" class="edge">
<title>menu_insert_item&#45;&gt;malloc</title>
<path fill="none" stroke="black" d="M780.9,-183.25C803.55,-164.78 830.95,-142.45 850.77,-126.29"/>
<polygon fill="black" stroke="black" points="853.23,-128.8 858.77,-119.77 848.8,-123.38 853.23,-128.8"/>
</g>
<!-- menu_remove_item_by_text -->
<g id="node36" class="node">
<title>menu_remove_item_by_text</title>
<polygon fill="#b3de69" stroke="black" points="547,-245 332,-245 332,-191 547,-191 547,-245"/>
<text text-anchor="middle" x="439.5" y="-214.3" font-family="Times,serif" font-size="14.00">menu_remove_item_by_text</text>
</g>
<!-- menu_remove_item_by_text&#45;&gt;free -->
<g id="edge40" class="edge">
<title>menu_remove_item_by_text&#45;&gt;free</title>
<path fill="none" stroke="black" d="M496.5,-190.93C515.25,-183.34 536.44,-175.82 556.5,-171 717.58,-132.32 762.62,-151.06 927.5,-135 1025.87,-125.42 1141.68,-114.08 1200.68,-108.3"/>
<polygon fill="black" stroke="black" points="1201.07,-111.78 1210.68,-107.32 1200.39,-104.82 1201.07,-111.78"/>
</g>
<!-- menu_remove_item_by_text&#45;&gt;menu_find_item_index -->
<g id="edge39" class="edge">
<title>menu_remove_item_by_text&#45;&gt;menu_find_item_index</title>
<path fill="none" stroke="black" d="M439.5,-190.91C439.5,-174.46 439.5,-153.13 439.5,-135.77"/>
<polygon fill="black" stroke="black" points="443,-135.56 439.5,-125.56 436,-135.56 443,-135.56"/>
</g>
<!-- action_save_map -->
<g id="node37" class="node">
<title>action_save_map</title>
<polygon fill="#b3de69" stroke="black" points="137,-229.5 0,-229.5 0,-206.5 137,-206.5 137,-229.5"/>
<text text-anchor="middle" x="68.5" y="-214.3" font-family="Times,serif" font-size="14.00">action_save_map</text>
</g>
<!-- action_save_map&#45;&gt;save_map_to_file -->
<g id="edge41" class="edge">
<title>action_save_map&#45;&gt;save_map_to_file</title>
<path fill="none" stroke="black" d="M86.09,-206.47C101.85,-197.07 125.64,-182.98 146.5,-171 164.15,-160.86 183.38,-150.03 201.12,-140.12"/>
<polygon fill="black" stroke="black" points="203.22,-142.95 210.25,-135.02 199.81,-136.84 203.22,-142.95"/>
</g>
<!-- ensure_resume_state -->
<g id="node38" class="node">
<title>ensure_resume_state</title>
<polygon fill="#b3de69" stroke="black" points="411.5,-370 243.5,-370 243.5,-318 411.5,-318 411.5,-370"/>
<text text-anchor="middle" x="327.5" y="-340.3" font-family="Times,serif" font-size="14.00">ensure_resume_state</text>
</g>
<!-- ensure_resume_state&#45;&gt;action_resume -->
<g id="edge43" class="edge">
<title>ensure_resume_state&#45;&gt;action_resume</title>
<path fill="none" stroke="black" stroke-dasharray="5,2" d="M304.84,-317.91C283.28,-294.04 251.36,-258.71 232.09,-237.36"/>
<polygon fill="black" stroke="black" points="234.43,-234.74 225.13,-229.66 229.24,-239.43 234.43,-234.74"/>
</g>
<!-- ensure_resume_state&#45;&gt;menu_find_item_index -->
<g id="edge42" class="edge">
<title>ensure_resume_state&#45;&gt;menu_find_item_index</title>
<path fill="none" stroke="black" d="M319.03,-317.93C308.69,-282.53 295.68,-217.09 322.5,-171 332.66,-153.55 349.29,-140.3 366.87,-130.4"/>
<polygon fill="black" stroke="black" points="368.91,-133.29 376.12,-125.53 365.65,-127.09 368.91,-133.29"/>
</g>
<!-- ensure_resume_state&#45;&gt;menu_insert_item -->
<g id="edge44" class="edge">
<title>ensure_resume_state&#45;&gt;menu_insert_item</title>
<path fill="none" stroke="black" d="M411.79,-329.99C479.9,-317.86 577.44,-296.81 658.5,-265 664.33,-262.71 670.25,-260.06 676.1,-257.22"/>
<polygon fill="black" stroke="black" points="677.86,-260.25 685.2,-252.6 674.7,-254 677.86,-260.25"/>
</g>
<!-- ensure_resume_state&#45;&gt;menu_remove_item_by_text -->
<g id="edge46" class="edge">
<title>ensure_resume_state&#45;&gt;menu_remove_item_by_text</title>
<path fill="none" stroke="black" d="M350.16,-317.91C367.06,-299.21 390.31,-273.46 408.85,-252.93"/>
<polygon fill="black" stroke="black" points="411.6,-255.11 415.71,-245.34 406.41,-250.41 411.6,-255.11"/>
</g>
<!-- ensure_resume_state&#45;&gt;action_save_map -->
<g id="edge45" class="edge">
<title>ensure_resume_state&#45;&gt;action_save_map</title>
<path fill="none" stroke="black" stroke-dasharray="5,2" d="M263.78,-317.84C228.68,-303.42 184.64,-284.37 146.5,-265 128.51,-255.86 108.95,-244.32 93.92,-235.09"/>
<polygon fill="black" stroke="black" points="95.54,-231.98 85.2,-229.68 91.85,-237.93 95.54,-231.98"/>
</g>
<!-- action_load_selected_map -->
<g id="node39" class="node">
<title>action_load_selected_map</title>
<polygon fill="#b3de69" stroke="black" points="697.5,-489 497.5,-489 497.5,-423 697.5,-423 697.5,-489"/>
<text text-anchor="middle" x="597.5" y="-452.3" font-family="Times,serif" font-size="14.00">action_load_selected_map</text>
</g>
<!-- action_load_selected_map&#45;&gt;free -->
<g id="edge47" class="edge">
<title>action_load_selected_map&#45;&gt;free</title>
<path fill="none" stroke="black" d="M606.38,-422.73C617.89,-387.19 641.52,-331.1 682.5,-301 747.2,-253.47 791.02,-306.89 859.5,-265 905.09,-237.11 889.1,-199.21 934.5,-171 1018.92,-118.54 1138.91,-107.12 1200.18,-104.85"/>
<polygon fill="black" stroke="black" points="1200.32,-108.35 1210.21,-104.55 1200.11,-101.35 1200.32,-108.35"/>
</g>
<!-- action_load_selected_map&#45;&gt;setup_player_global -->
<g id="edge49" class="edge">
<title>action_load_selected_map&#45;&gt;setup_player_global</title>
<path fill="none" stroke="black" d="M648,-422.89C677.44,-404.17 713.66,-381.14 739.05,-365"/>
<polygon fill="black" stroke="black" points="740.98,-367.91 747.55,-359.6 737.23,-362.01 740.98,-367.91"/>
</g>
<!-- action_load_selected_map&#45;&gt;load_map -->
<g id="edge48" class="edge">
<title>action_load_selected_map&#45;&gt;load_map</title>
<path fill="none" stroke="black" d="M598.87,-422.68C600.48,-384.77 603.17,-321.27 605.12,-275.23"/>
<polygon fill="black" stroke="black" points="608.62,-275.24 605.55,-265.1 601.63,-274.95 608.62,-275.24"/>
</g>
<!-- action_load_selected_map&#45;&gt;menu_free -->
<g id="edge51" class="edge">
<title>action_load_selected_map&#45;&gt;menu_free</title>
<path fill="none" stroke="black" d="M697.66,-431.75C713.29,-428.54 729.29,-425.5 744.5,-423 887.04,-399.61 926.15,-416.74 1067.5,-387 1093.61,-381.51 1121.88,-373.04 1145.69,-365.14"/>
<polygon fill="black" stroke="black" points="1146.9,-368.42 1155.26,-361.91 1144.67,-361.79 1146.9,-368.42"/>
</g>
<!-- action_load_selected_map&#45;&gt;ensure_resume_state -->
<g id="edge50" class="edge">
<title>action_load_selected_map&#45;&gt;ensure_resume_state</title>
<path fill="none" stroke="black" d="M518.68,-422.89C480.81,-407.46 435.77,-389.11 398.92,-374.1"/>
<polygon fill="black" stroke="black" points="399.83,-370.69 389.25,-370.16 397.19,-377.17 399.83,-370.69"/>
</g>
<!-- action_maps_back -->
<g id="node40" class="node">
<title>action_maps_back</title>
<polygon fill="#b3de69" stroke="black" points="899,-473.5 754,-473.5 754,-438.5 899,-438.5 899,-473.5"/>
<text text-anchor="middle" x="826.5" y="-452.3" font-family="Times,serif" font-size="14.00">action_maps_back</text>
</g>
<!-- action_maps_back&#45;&gt;menu_render -->
<g id="edge52" class="edge">
<title>action_maps_back&#45;&gt;menu_render</title>
<path fill="none" stroke="black" d="M853.38,-438.29C876.09,-424.18 909.55,-403.39 939.11,-385.01"/>
<polygon fill="black" stroke="black" points="941.1,-387.9 947.74,-379.65 937.4,-381.96 941.1,-387.9"/>
</g>
<!-- menu_render&#45;&gt;render_screen -->
<g id="edge53" class="edge">
<title>menu_render&#45;&gt;render_screen</title>
<path fill="none" stroke="black" d="M1003.5,-300.67C1003.5,-287.5 1003.5,-273 1003.5,-259.92"/>
<polygon fill="black" stroke="black" points="1007,-259.79 1003.5,-249.79 1000,-259.79 1007,-259.79"/>
</g>
<!-- action_show_maps -->
<g id="node42" class="node">
<title>action_show_maps</title>
<polygon fill="#b3de69" stroke="black" points="902,-592 753,-592 753,-525 902,-525 902,-592"/>
<text text-anchor="middle" x="827.5" y="-554.8" font-family="Times,serif" font-size="14.00">action_show_maps</text>
</g>
<!-- action_show_maps&#45;&gt;menu_init -->
<g id="edge55" class="edge">
<title>action_show_maps&#45;&gt;menu_init</title>
<path fill="none" stroke="black" d="M883.34,-524.87C903.85,-512.89 926.98,-499.38 947.17,-487.58"/>
<polygon fill="black" stroke="black" points="949.05,-490.53 955.92,-482.47 945.52,-484.49 949.05,-490.53"/>
</g>
<!-- action_show_maps&#45;&gt;menu_free -->
<g id="edge54" class="edge">
<title>action_show_maps&#45;&gt;menu_free</title>
<path fill="none" stroke="black" d="M902.19,-543.87C947.54,-533.41 1005.38,-516.07 1051.5,-489 1102.73,-458.92 1150.07,-408.02 1177.36,-375.48"/>
<polygon fill="black" stroke="black" points="1180.18,-377.57 1183.86,-367.63 1174.79,-373.11 1180.18,-377.57"/>
</g>
<!-- action_show_maps&#45;&gt;menu_add_item -->
<g id="edge57" class="edge">
<title>action_show_maps&#45;&gt;menu_add_item</title>
<path fill="none" stroke="black" d="M752.94,-547.13C683.48,-536.38 577.52,-517.15 488.5,-489 487.78,-488.77 487.06,-488.54 486.34,-488.31"/>
<polygon fill="black" stroke="black" points="487.47,-484.99 476.88,-485.01 485.17,-491.6 487.47,-484.99"/>
</g>
<!-- action_show_maps&#45;&gt;action_load_selected_map -->
<g id="edge58" class="edge">
<title>action_show_maps&#45;&gt;action_load_selected_map</title>
<path fill="none" stroke="black" stroke-dasharray="5,2" d="M752.83,-524.87C729.67,-514.75 704.01,-503.54 680.33,-493.19"/>
<polygon fill="black" stroke="black" points="681.58,-489.92 671.01,-489.12 678.78,-496.33 681.58,-489.92"/>
</g>
<!-- action_show_maps&#45;&gt;action_maps_back -->
<g id="edge56" class="edge">
<title>action_show_maps&#45;&gt;action_maps_back</title>
<path fill="none" stroke="black" stroke-dasharray="5,2" d="M827.18,-524.87C827.04,-511.66 826.89,-496.59 826.77,-484.01"/>
<polygon fill="black" stroke="black" points="830.27,-483.67 826.67,-473.71 823.27,-483.74 830.27,-483.67"/>
</g>
<!-- action_show_maps&#45;&gt;menu_render -->
<g id="edge59" class="edge">
<title>action_show_maps&#45;&gt;menu_render</title>
<path fill="none" stroke="black" d="M871.03,-524.7C883.6,-514.09 896.8,-501.75 907.5,-489 929.4,-462.9 927.76,-451.46 946.5,-423 952.43,-413.99 958.98,-404.59 965.46,-395.55"/>
<polygon fill="black" stroke="black" points="968.35,-397.54 971.38,-387.38 962.68,-393.43 968.35,-397.54"/>
</g>
<!-- action_load_map -->
<g id="node43" class="node">
<title>action_load_map</title>
<polygon fill="#b3de69" stroke="black" points="694.5,-685.5 560.5,-685.5 560.5,-662.5 694.5,-662.5 694.5,-685.5"/>
<text text-anchor="middle" x="627.5" y="-670.3" font-family="Times,serif" font-size="14.00">action_load_map</text>
</g>
<!-- action_load_map&#45;&gt;action_show_maps -->
<g id="edge60" class="edge">
<title>action_load_map&#45;&gt;action_show_maps</title>
<path fill="none" stroke="black" d="M646.32,-662.32C672.41,-647.52 720.91,-619.99 761.17,-597.14"/>
<polygon fill="black" stroke="black" points="762.92,-600.18 769.89,-592.2 759.46,-594.09 762.92,-600.18"/>
</g>
<!-- action_quit -->
<g id="node44" class="node">
<title>action_quit</title>
<polygon fill="#b3de69" stroke="black" points="539,-685.5 444,-685.5 444,-662.5 539,-662.5 539,-685.5"/>
<text text-anchor="middle" x="491.5" y="-670.3" font-family="Times,serif" font-size="14.00">action_quit</text>
</g>
<!-- setup_main_menu&#45;&gt;menu_init -->
<g id="edge61" class="edge">
<title>setup_main_menu&#45;&gt;menu_init</title>
<path fill="none" stroke="black" d="M526.13,-779.42C624.5,-754.96 800.43,-698.92 910.5,-592 940.93,-562.44 966.46,-520.72 982.26,-491.51"/>
<polygon fill="black" stroke="black" points="985.44,-492.97 987.04,-482.5 979.26,-489.69 985.44,-492.97"/>
</g>
<!-- setup_main_menu&#45;&gt;menu_add_item -->
<g id="edge63" class="edge">
<title>setup_main_menu&#45;&gt;menu_add_item</title>
<path fill="none" stroke="black" d="M447.36,-774.83C443.05,-759.85 437.54,-738.83 434.5,-720 421.72,-640.89 417.54,-547 416.17,-495.53"/>
<polygon fill="black" stroke="black" points="419.66,-495.12 415.91,-485.21 412.66,-495.3 419.66,-495.12"/>
</g>
<!-- setup_main_menu&#45;&gt;action_resume -->
<g id="edge62" class="edge">
<title>setup_main_menu&#45;&gt;action_resume</title>
<path fill="none" stroke="black" stroke-dasharray="5,2" d="M407.61,-774.97C338.45,-741.32 215.5,-666.46 215.5,-559.5 215.5,-559.5 215.5,-559.5 215.5,-455 215.5,-375.6 215.5,-281.18 215.5,-239.98"/>
<polygon fill="black" stroke="black" points="219,-239.82 215.5,-229.82 212,-239.82 219,-239.82"/>
</g>
<!-- setup_main_menu&#45;&gt;action_save_map -->
<g id="edge64" class="edge">
<title>setup_main_menu&#45;&gt;action_save_map</title>
<path fill="none" stroke="black" stroke-dasharray="5,2" d="M380.76,-782.6C334.73,-771.95 275.93,-752.92 232.5,-720 163.58,-667.76 122.5,-645.98 122.5,-559.5 122.5,-559.5 122.5,-559.5 122.5,-455 122.5,-373.2 91.29,-279.39 76.33,-239.09"/>
<polygon fill="black" stroke="black" points="79.55,-237.73 72.74,-229.62 73.01,-240.21 79.55,-237.73"/>
</g>
<!-- setup_main_menu&#45;&gt;ensure_resume_state -->
<g id="edge67" class="edge">
<title>setup_main_menu&#45;&gt;ensure_resume_state</title>
<path fill="none" stroke="black" d="M444.04,-774.83C437.16,-759.85 427.81,-738.83 420.5,-720 381.31,-618.97 365.59,-594.87 342.5,-489 334.53,-452.47 330.76,-409.78 329,-380.42"/>
<polygon fill="black" stroke="black" points="332.48,-380.03 328.44,-370.24 325.49,-380.42 332.48,-380.03"/>
</g>
<!-- setup_main_menu&#45;&gt;action_load_map -->
<g id="edge65" class="edge">
<title>setup_main_menu&#45;&gt;action_load_map</title>
<path fill="none" stroke="black" stroke-dasharray="5,2" d="M482.62,-774.91C516.44,-751.6 571.59,-713.56 603.2,-691.76"/>
<polygon fill="black" stroke="black" points="605.58,-694.37 611.83,-685.81 601.61,-688.6 605.58,-694.37"/>
</g>
<!-- setup_main_menu&#45;&gt;action_quit -->
<g id="edge66" class="edge">
<title>setup_main_menu&#45;&gt;action_quit</title>
<path fill="none" stroke="black" stroke-dasharray="5,2" d="M459.86,-774.91C466.83,-752.9 477.96,-717.75 484.99,-695.55"/>
<polygon fill="black" stroke="black" points="488.4,-696.4 488.08,-685.81 481.72,-694.28 488.4,-696.4"/>
</g>
<!-- menu_update_input&#45;&gt;sleep_ms -->
<g id="edge70" class="edge">
<title>menu_update_input&#45;&gt;sleep_ms</title>
<path fill="none" stroke="black" d="M1272.5,-759C1283.01,-737.99 1295.86,-712.28 1304.56,-694.89"/>
<polygon fill="black" stroke="black" points="1307.81,-696.21 1309.15,-685.7 1301.55,-693.08 1307.81,-696.21"/>
</g>
<!-- menu_update_input&#45;&gt;platform_get_key_state -->
<g id="edge68" class="edge">
<title>menu_update_input&#45;&gt;platform_get_key_state</title>
<path fill="none" stroke="black" d="M1333.16,-777.81C1444.81,-753.4 1646.65,-709.28 1745.62,-687.65"/>
<polygon fill="black" stroke="black" points="1746.42,-691.06 1755.44,-685.5 1744.93,-684.22 1746.42,-691.06"/>
</g>
<!-- menu_update_input&#45;&gt;menu_free -->
<g id="edge71" class="edge">
<title>menu_update_input&#45;&gt;menu_free</title>
<path fill="none" stroke="black" d="M1250.25,-758.94C1240.18,-673.42 1214.97,-459.4 1205.33,-377.54"/>
<polygon fill="black" stroke="black" points="1208.8,-377.08 1204.16,-367.56 1201.85,-377.9 1208.8,-377.08"/>
</g>
<!-- menu_update_input&#45;&gt;menu_render -->
<g id="edge69" class="edge">
<title>menu_update_input&#45;&gt;menu_render</title>
<path fill="none" stroke="black" d="M1243.25,-758.77C1220.62,-689.34 1164.87,-534.55 1085.5,-423 1078.4,-413.02 1069.89,-403.28 1061.09,-394.24"/>
<polygon fill="black" stroke="black" points="1063.54,-391.74 1053.99,-387.16 1058.6,-396.7 1063.54,-391.74"/>
</g>
</g>
</svg>
